<?xml version="1.0" standalone="no"?>
<!DOCTYPE svg PUBLIC "-//W3C//DTD SVG 20010904//EN"
 "http://www.w3.org/TR/2001/REC-SVG-20010904/DTD/svg10.dtd">
<svg version="1.0" xmlns="http://www.w3.org/2000/svg"
 width="512.000000pt" height="512.000000pt" viewBox="0 0 512.000000 512.000000"
 preserveAspectRatio="xMidYMid meet">

<g transform="translate(0.000000,512.000000) scale(0.100000,-0.100000)"
fill="#000000" stroke="none">
<path d="M795 3969 c-121 -71 -284 -166 -362 -211 -78 -45 -140 -85 -137 -90
3 -4 34 -24 69 -44 36 -19 67 -40 70 -44 3 -5 -5 -35 -19 -67 -43 -104 -95
-278 -120 -405 -132 -660 25 -1340 433 -1873 396 -517 1019 -852 1666 -893 84
-5 111 -4 102 4 -6 6 -97 60 -202 119 -104 60 -198 114 -208 121 -16 10 8 27
187 130 113 65 204 119 202 121 -2 2 -48 9 -102 14 -220 22 -414 80 -624 186
-165 83 -286 166 -413 284 -522 484 -711 1211 -491 1891 19 59 38 108 41 108
3 0 37 -18 75 -40 39 -22 72 -40 74 -40 2 0 4 194 4 430 0 338 -3 430 -12 429
-7 0 -112 -59 -233 -130z"/>
<path d="M2693 2578 l-273 -273 -133 133 c-73 72 -140 132 -149 132 -17 0 -48
-35 -48 -54 0 -5 68 -78 152 -163 117 -118 158 -153 178 -153 20 0 86 61 318
293 160 161 292 297 292 303 0 19 -31 54 -48 54 -9 0 -140 -123 -289 -272z"/>
</g>
</svg>
